# xmcd CD database file
#
# Track frame offsets:
#	150
#	22981
#	41337
#	65904
#	87546
#	109645
#	129671
#	150815
#	169031
#	187943
#	203913
#	221008
#
# Disc length: 3197 seconds
#
# Revision: 1
# Processed by: cddbd v1.5.2PL0 Copyright (c) Steve Scherf et al.
# Submitted via: CDex 1.51
#
DISCID=9c0c7b0c
DTITLE=Ben Sidran - Sentimental Journey - Jazz Side. 2
DYEAR=2004
DGENRE=Jazz
TTITLE0=Blue panther
TTITLE1=No moon at all
TTITLE2=Sentimental journey
TTITLE3=Lady sings the blues
TTITLE4=Get happy
TTITLE5=Dark night
TTITLE6=The winter of my discontent
TTITLE7=Bye bye blackbird
TTITLE8=Everything happens to me
TTITLE9=So long
TTITLE10=I wanna be a bebopper
TTITLE11=Language of the blues
EXTD=YEAR: 2004
EXTT0=
EXTT1=
EXTT2=
EXTT3=
EXTT4=
EXTT5=
EXTT6=
EXTT7=
EXTT8=
EXTT9=
EXTT10=
EXTT11=
PLAYORDER=
